<?xml version="1.0" standalone="no"?>
<!DOCTYPE svg PUBLIC "-//W3C//DTD SVG 20010904//EN"
 "http://www.w3.org/TR/2001/REC-SVG-20010904/DTD/svg10.dtd">
<svg version="1.0" xmlns="http://www.w3.org/2000/svg"
 width="814.000000pt" height="814.000000pt" viewBox="0 0 814.000000 814.000000"
 preserveAspectRatio="xMidYMid meet">
<metadata>
Created by potrace 1.14, written by Peter Selinger 2001-2017
</metadata>
<g transform="translate(0.000000,814.000000) scale(0.100000,-0.100000)"
fill="#000000" stroke="none">
<path d="M344 6128 c-39 -10 -73 -47 -80 -86 -4 -20 -7 -721 -7 -1559 l0
-1523 -31 -1 c-17 -1 -41 0 -53 1 -22 1 -23 -3 -24 -62 -2 -183 0 -361 4 -365
3 -2 262 -4 576 -4 485 -1 571 -3 571 -15 0 -20 1 -22 26 -96 119 -352 452
-561 819 -515 302 37 565 275 634 573 l12 52 1540 0 1539 1 10 -42 c50 -193
143 -336 290 -444 293 -216 698 -192 965 59 102 95 169 207 210 348 l22 75
235 1 c335 2 326 -5 330 271 l3 177 28 1 c36 0 77 39 78 74 0 14 1 85 1 158 1
149 -9 189 -51 200 -29 8 -37 10 -50 12 -4 0 -9 54 -10 119 0 64 -3 126 -6
137 -2 11 -11 50 -19 88 -21 96 -50 197 -90 312 -54 155 -66 188 -81 222 -8
17 -15 34 -15 38 0 6 -30 77 -78 185 -32 74 -163 338 -195 395 -97 173 -225
338 -291 373 -28 15 -105 16 -796 17 l-765 0 -1 374 c-2 353 -3 375 -21 400
-45 59 155 55 -2641 56 -1409 0 -2574 -3 -2588 -7z"/>
</g>
</svg>
